<?xml version="1.0" encoding="utf-8"?>
<!-- Generator: Adobe Illustrator 23.0.1, SVG Export Plug-In . SVG Version: 6.00 Build 0)  -->
<svg xmlns="http://www.w3.org/2000/svg" xmlns:xlink="http://www.w3.org/1999/xlink" x="0px" y="0px"
	 viewBox="0 0 443.4 494" style="enable-background:new 0 0 443.4 494;" xml:space="preserve">
<style type="text/css">
	.half-iphone-x-1-0{fill:#FFFFFF;}
	.half-iphone-x-1-1{fill:none;stroke:#F7F7F7;}
	.half-iphone-x-1-2{fill:none;stroke:#E7EAF3;}
	.half-iphone-x-1-3{fill:none;}
</style>
<path class="half-iphone-x-1-0" d="M443.4,494V65.1c0-36-29.2-65.1-65.1-65.1H65.1C29.1,0,0,29.1,0,65.1V494"/>
<path class="half-iphone-x-1-1" stroke-width="4" stroke-miterlimit="10" d="M242.8,36.8h-46.4c-2,0-3.6-1.6-3.6-3.6l0,0c0-2,1.6-3.6,3.6-3.6h46.4c2,0,3.6,1.6,3.6,3.6l0,0
	C246.4,35.2,244.8,36.8,242.8,36.8z"/>
<circle class="half-iphone-x-1-1" stroke-width="4" stroke-miterlimit="10" cx="269.5" cy="33.2" r="5.5"/>
<g>
	<defs>
		<path id="halfIphoneX1ID2" d="M18.6,494V73.6c0-28,21.8-50.7,48.8-50.7h35.3c4,0,7.2,3.4,7.2,7.5l0,0c0,14.9,11.6,27,26,27h171.5
			c14.4,0.1,26-12,26-27l0,0c0-4.1,3.2-7.5,7.2-7.5H376c26.9,0,48.8,22.7,48.8,50.7V494"/>
	</defs>
	<clipPath id="halfIphoneX1ID1">
		<use xlink:href="#halfIphoneX1ID2"  style="overflow:visible;"/>
	</clipPath>
	<g style="clip-path:url(#halfIphoneX1ID1);">
		<image id="SVGhalfIphoneX1Img1" style="overflow:visible;" width="407" height="472" xlink:href="../../img/407x472/img1.jpg"  transform="matrix(1 0 0 1 18.2 22.45)"></image>
	</g>
</g>
<path class="half-iphone-x-1-2" stroke-miterlimit="10" d="M18.6,494V73.6c0-28,21.8-50.7,48.8-50.7h35.3c4,0,7.2,3.4,7.2,7.5l0,0c0,14.9,11.6,27,26,27h171.5
	c14.4,0.1,26-12,26-27l0,0c0-4.1,3.2-7.5,7.2-7.5H376c26.9,0,48.8,22.7,48.8,50.7V494"/>
<rect class="half-iphone-x-1-3" width="443.4" height="494"/>
</svg>
