<?xml version="1.0" encoding="utf-8"?>
<!-- Generator: Adobe Illustrator 23.0.1, SVG Export Plug-In . SVG Version: 6.00 Build 0)  -->
<svg xmlns="http://www.w3.org/2000/svg" xmlns:xlink="http://www.w3.org/1999/xlink" x="0px" y="0px"
	 viewBox="0 0 443.4 907.6" style="enable-background:new 0 0 443.4 907.6;" xml:space="preserve">
<style type="text/css">
	.iphone-x-2-0{fill:#FFFFFF;}
	.iphone-x-2-1{fill:none;stroke:#F7F7F7;}
	.iphone-x-2-2{fill:none;stroke:#E7EAF3;}
	.iphone-x-2-3{fill:#F7F7F7;}
</style>
<path class="iphone-x-2-0" d="M378.3,0H65.1C29.1,0,0,29.1,0,65.1v777.4c0,35.9,29.1,65.1,65.1,65.1h313.2c35.9,0,65.1-29.1,65.1-65.1V65.1
	C443.4,29.1,414.2,0,378.3,0z"/>
<path class="iphone-x-2-1" stroke-width="4" stroke-miterlimit="10" d="M242.8,36.8h-46.4c-2,0-3.6-1.6-3.6-3.6l0,0c0-2,1.6-3.6,3.6-3.6h46.4c2,0,3.6,1.6,3.6,3.6l0,0
	C246.4,35.2,244.8,36.8,242.8,36.8z"/>
<circle class="iphone-x-2-1" stroke-width="4" stroke-miterlimit="10" cx="269.5" cy="33.2" r="5.5"/>
<g>
	<g>
		<defs>
			<path id="iphoneX2ID_1" d="M333.4,30.4L333.4,30.4c0-4.1,3.2-7.5,7.2-7.5H376c26.9,0,48.8,22.7,48.8,50.7v765.2
				c0,28-21.8,50.7-48.8,50.7H67.4c-26.9,0-48.8-22.7-48.8-50.7V73.6c0-28,21.8-50.7,48.8-50.7h35.3c4,0,7.2,3.4,7.2,7.5l0,0
				c0,14.9,11.6,27,26,27h171.5C321.8,57.5,333.4,45.4,333.4,30.4z"/>
		</defs>
		<clipPath id="iphoneX2ID_2">
			<use xlink:href="#iphoneX2ID_1"  style="overflow:visible;"/>
		</clipPath>
		<g clip-path="url(#iphoneX2ID_2)">
			<image id="SVGiphoneX2Img1" style="overflow:visible;enable-background:new;" width="407" height="867" xlink:href="../../img/407x867/img1.jpg"  transform="matrix(1 0 0 1 18.1877 22.7069)"></image>
		</g>
	</g>
	<g>
		<path id="iphoneX2ID_1" class="iphone-x-2-2" stroke-miterlimit="10" d="M333.4,30.4L333.4,30.4c0-4.1,3.2-7.5,7.2-7.5H376c26.9,0,48.8,22.7,48.8,50.7v765.2
			c0,28-21.8,50.7-48.8,50.7H67.4c-26.9,0-48.8-22.7-48.8-50.7V73.6c0-28,21.8-50.7,48.8-50.7h35.3c4,0,7.2,3.4,7.2,7.5l0,0
			c0,14.9,11.6,27,26,27h171.5C321.8,57.5,333.4,45.4,333.4,30.4z"/>
	</g>
</g>
<path class="iphone-x-2-3" d="M285.2,879.8h-127c-1.4,0-2.6-1.2-2.6-2.6l0,0c0-1.4,1.2-2.6,2.6-2.6h127c1.4,0,2.6,1.2,2.6,2.6l0,0
	C287.8,878.7,286.6,879.8,285.2,879.8z"/>
</svg>
