<svg height="64" preserveAspectRatio="none" viewBox="0 0 64 64" width="64" xmlns="http://www.w3.org/2000/svg" xmlns:xlink="http://www.w3.org/1999/xlink"><linearGradient id="a" gradientUnits="userSpaceOnUse" x1="32" x2="31.999998" y1="2.996094" y2="60.986462"><stop offset="0" stop-color="#1fb8ff"/><stop offset="1" stop-color="#0070ff"/></linearGradient><path d="m62.2050781 50.2050781c0 6.6269531-5.3730469 12-12 12h-36.409668c-6.6274414 0-12-5.3730469-12-12v-36.409668c0-6.6274414 5.3725586-12 12-12h36.409668c6.6269531 0 12 5.3725586 12 12z" fill="url(#a)"/><g fill="#fff"><path d="m2.6723633 13.3686523c-.0322266.3530273-.0541992.7094727-.0541992 1.0708008v12.59375c.0058594.0058594.0117188.0117188.0170898.0175781z" opacity=".28"/><path d="m60.1064453 23.5698242c1.1884766-5.8022461 1.2216797-9.4174805 1.2216797-10.1938477-.5380859-5.9477539-5.53125-10.609375-11.6181641-10.609375h-35.4189453c-6.0756836 0-11.0620117 4.6420898-11.6171875 10.5722656.0195313.3491211.4970703 4.0341797 1.2929688 10.3071289 7.2397461 7.0546876 17.1254883 11.4086915 28.0332031 11.4086915 10.9453125 0 20.859375-4.3852539 28.1064453-11.4848633z" opacity=".28"/><path d="m61.328125 13.3789063.0390625 13.6674805c.0048828-.0048828.0097656-.0097656.0146484-.0146484v-12.5922853c0-.3579101-.0224609-.7104492-.0537109-1.0605468z" opacity=".28"/><path d="m2.6738281 27.5859375s-.0058594-10.9194336-.0283203-13.8588867c-.0273437-3.6000977 2.0209961-11.3105469 11.7709961-11.3105469h16.8032227s-14.1015625 1.2348633-18.199707 2.0546875-7.4936523 6.043457-8.4423828 9.2626953c-1.3793946 4.6811524-1.9038087 13.8520508-1.9038087 13.8520508z"/></g><path d="m61.7929688 36.8320313s.0058594 10.7851563.0283203 13.6894531c.0283203 3.5546875-3.3095703 10.7568359-10.5888672 10.7568359-6.7744141 0-17.1464844 0-17.1464844 0s12.9667969-.8046875 17.1494141-1.6152344c4.1806641-.8095703 7.6445313-5.9677734 8.6142578-9.1484375 1.4082031-4.625 1.9433594-13.6826171 1.9433594-13.6826171z" fill="#22a4fc"/><path d="m50.2050781 63.2050781h-36.409668c-7.168457 0-13-5.8320313-13-13v-36.409668c0-7.168457 5.831543-13 13-13h36.409668c7.1679688 0 13 5.831543 13 13v36.409668c0 7.1679688-5.8320312 13-13 13zm-36.4096679-60.4096679c-6.0654297 0-11 4.9345703-11 11v36.409668c0 6.0654297 4.9345703 11 11 11h36.409668c6.0654297 0 11-4.9345703 11-11v-36.409668c0-6.0654297-4.9345703-11-11-11z" fill="#0068a8"/><path d="m28.7490234 41.734375h-4.5546875l-1.1259766-4.5039063h-4.4541016l-1.0507813 4.5039063h-4.4550781l5.1054688-19.34375h5.5800781zm-6.2060546-7.8330078-.8505859-3.878418c-.25-1.1508789-.5761719-2.8779297-.8261719-4.0541992h-.0498047c-.25 1.1762695-.5751953 2.953125-.8007813 4.0541992l-.8759766 3.878418z" fill="#fff"/><path d="m31.0996094 22.6660156c1.2509766-.2255859 3.0029297-.4003906 5.2050781-.4003906 2.5527344 0 4.4287109.425293 5.7304688 1.5263672 1.2265625 1.0009766 1.9521484 2.6523438 1.9521484 4.4541016 0 5.3808594-4.3798828 6.6318359-7.4072266 6.6318359-.4257813 0-.8007813-.0253906-1.1015625-.0498047v6.90625h-4.3789063v-19.0683594zm4.3789062 8.7080078c.2753906.0253906.5507813.050293 1.0009766.050293 2.0527344 0 3.1533203-1.2260742 3.1533203-2.9780273 0-1.7763672-1.0761719-2.7524414-2.828125-2.7524414-.6005859 0-1.0751953.074707-1.3261719.1499023z" fill="#fff"/><path d="m46.4873047 22.390625h4.4042969v19.34375h-4.4042969z" fill="#fff"/></svg>