<svg height="153" preserveAspectRatio="xMidYMid" viewBox="0 0 256 153" width="256" xmlns="http://www.w3.org/2000/svg"><path d="m72.392053 55.4384106c0 3.1364238.3390728 5.6794702.9324503 7.5443709.6781457 1.8649006 1.5258278 3.8993377 2.7125828 6.1033112.4238411.6781457.5933775 1.3562914.5933775 1.9496689 0 .8476821-.5086093 1.6953642-1.6105961 2.5430463l-5.3403973 3.5602649c-.7629139.5086093-1.5258278.762914-2.2039735.762914-.8476821 0-1.6953642-.4238411-2.5430464-1.186755-1.1867549-1.2715232-2.2039735-2.6278146-3.0516556-3.984106-.8476821-1.4410596-1.6953642-3.0516556-2.6278146-5.0013245-6.6119205 7.7986755-14.9192053 11.6980133-24.9218543 11.6980133-7.1205298 0-12.8-2.0344371-16.9536424-6.1033113-4.1536423-4.0688742-6.2728476-9.4940397-6.2728476-16.2754967 0-7.205298 2.5430463-13.0543046 7.7139072-17.4622516 5.170861-4.4079471 12.0370861-6.6119206 20.768212-6.6119206 2.8821192 0 5.8490066.2543047 8.9854304.6781457 3.1364239.4238411 6.3576159 1.1019868 9.7483444 1.8649007v-6.1880795c0-6.4423841-1.3562914-10.9350993-3.984106-13.5629139-2.7125827-2.6278146-7.2900662-3.8993377-13.8172185-3.8993377-2.9668874 0-6.018543.3390728-9.1549669 1.1019867-3.1364238.7629139-6.1880795 1.6953643-9.1549669 2.8821192-1.3562914.5933775-2.3735099.9324504-2.9668874 1.1019868s-1.0172185.2543046-1.3562914.2543046c-1.186755 0-1.7801324-.8476821-1.7801324-2.6278145v-4.1536424c0-1.35629142.1695364-2.37350997.5933774-2.96688745.4238411-.59337748 1.186755-1.18675497 2.37351-1.78013245 2.9668874-1.52582782 6.5271523-2.79735099 10.6807947-3.81456954 4.1536424-1.10198675 8.5615894-1.61059602 13.223841-1.61059602 10.0874173 0 17.4622517 2.28874172 22.2092716 6.86622516 4.6622516 4.5774834 7.0357616 11.5284768 7.0357616 20.8529801v27.4649007zm-34.4158941 12.8847682c2.797351 0 5.6794702-.5086093 8.7311259-1.5258278 3.0516556-1.0172185 5.7642384-2.8821192 8.0529801-5.4251656 1.3562914-1.610596 2.3735099-3.3907284 2.8821192-5.4251655s.8476821-4.4927153.8476821-7.3748345v-3.5602649c-2.4582781-.5933775-5.0860927-1.1019867-7.7986755-1.4410596-2.7125828-.3390728-5.3403973-.5086092-7.9682119-.5086092-5.6794702 0-9.8331126 1.1019867-12.6304636 3.3907284-2.797351 2.2887418-4.1536424 5.5099338-4.1536424 9.7483444 0 3.984106 1.0172186 6.9509934 3.1364239 8.9854305 2.0344371 2.1192053 5.0013245 3.1364238 8.9006622 3.1364238zm68.0688741 9.1549669c-1.525828 0-2.543046-.2543046-3.221192-.8476821-.678146-.5086093-1.271523-1.6953643-1.780132-3.3059603l-19.9205302-65.5258278c-.5086093-1.69536424-.7629139-2.797351-.7629139-3.39072848 0-1.35629139.6781457-2.1192053 2.0344371-2.1192053h8.3072848c1.610596 0 2.7125827.25430464 3.3059602.84768212.6781457.50860927 1.186755 1.69536424 1.6953643 3.30596027l14.2410597 56.11655629 13.223841-56.11655629c.423841-1.69536424.93245-2.797351 1.610596-3.30596027s1.864901-.84768212 3.390728-.84768212h6.781457c1.610596 0 2.712583.25430464 3.390729.84768212.678146.50860927 1.271523 1.69536424 1.610596 3.30596027l13.393377 56.79470199 14.664901-56.79470199c.508609-1.69536424 1.101987-2.797351 1.695364-3.30596027.678146-.50860927 1.780133-.84768212 3.305961-.84768212h7.883443c1.356292 0 2.119206.6781457 2.119206 2.1192053 0 .42384106-.084769.84768212-.169537 1.35629139s-.254305 1.18675497-.593377 2.1192053l-20.429139 65.52582779c-.50861 1.6953643-1.101987 2.797351-1.780133 3.3059603s-1.780132.8476821-3.221192.8476821h-7.290066c-1.610596 0-2.712583-.2543046-3.390729-.8476821-.678145-.5933775-1.271523-1.6953643-1.610596-3.3907285l-13.139073-54.6754967-13.054304 54.5907285c-.423841 1.6953642-.93245 2.797351-1.610596 3.3907285s-1.864901.8476821-3.390729.8476821zm108.927152 2.2887417c-4.407947 0-8.815894-.5086093-13.054304-1.5258278-4.238411-1.0172185-7.544371-2.1192053-9.748345-3.3907285-1.356291-.7629139-2.288741-1.610596-2.627814-2.3735099s-.508609-1.610596-.508609-2.3735099v-4.3231788c0-1.7801325.678145-2.6278146 1.949668-2.6278146.50861 0 1.017219.0847682 1.525828.2543046.50861.1695364 1.271523.5086093 2.119206.8476821 2.882119 1.2715232 6.018543 2.2887418 9.324503 2.9668875 3.390728.6781456 6.696689 1.0172185 10.087417 1.0172185 5.340397 0 9.49404-.9324503 12.376159-2.797351s4.407947-4.5774834 4.407947-8.0529801c0-2.37351-.762914-4.3231788-2.288742-5.9337749-1.525827-1.610596-4.407947-3.0516556-8.561589-4.407947l-12.291391-3.8145695c-6.188079-1.9496689-10.765563-4.8317881-13.562914-8.6463576-2.797351-3.7298014-4.23841-7.8834437-4.23841-12.2913908 0-3.5602649.762914-6.6966887 2.288741-9.4092715 1.525828-2.7125828 3.560265-5.0860927 6.103312-6.95099337 2.543046-1.94966887 5.425165-3.39072847 8.815894-4.40794702 3.390728-1.01721854 6.950993-1.4410596 10.680794-1.4410596 1.864901 0 3.81457.08476821 5.679471.33907285 1.949668.25430464 3.729801.59337748 5.509933.93245033 1.695365.42384106 3.305961.84768212 4.831788 1.35629139 1.525828.50860927 2.712583 1.01721854 3.560265 1.52582782 1.186755.67814569 2.034437 1.35629139 2.543047 2.11920529.508609.6781457.762914 1.61059603.762914 2.797351v3.98410591c0 1.7801325-.678146 2.7125828-1.949669 2.7125828-.678146 0-1.780133-.3390728-3.221192-1.0172185-4.831788-2.2039735-10.256954-3.3059603-16.275497-3.3059603-4.831788 0-8.646358.7629139-11.274172 2.37351-2.627815 1.610596-3.984106 4.0688741-3.984106 7.5443708 0 2.3735099.847682 4.407947 2.543046 6.0185431 1.695364 1.610596 4.831788 3.221192 9.324504 4.6622516l12.037086 3.8145696c6.103311 1.9496688 10.511258 4.6622516 13.139072 8.1377483 2.627815 3.4754967 3.899338 7.4596026 3.899338 11.8675497 0 3.6450331-.762914 6.9509933-2.203973 9.8331126-1.525828 2.8821192-3.560265 5.4251655-6.18808 7.4596026-2.627814 2.1192053-5.764238 3.6450331-9.409271 4.7470199-3.81457 1.1867549-7.798676 1.7801324-12.121855 1.7801324z" fill="#252f3e"/><path d="m230.993377 120.964238c-27.888741 20.598676-68.407947 31.533775-103.247682 31.533775-48.8264897 0-92.8211917-18.055629-126.05033076-48.063576-2.62781457-2.37351-.25430464-5.5947019 2.8821192-3.729801 35.94172186 20.85298 80.27549666 33.483443 126.13509956 33.483443 30.940397 0 64.93245-6.442384 96.21192-19.666225 4.662252-2.119205 8.646358 3.051656 4.068874 6.442384zm11.613246-13.223841c-3.560265-4.577483-23.565563-2.203973-32.635762-1.101986-2.712583.339072-3.136424-2.034437-.678146-3.81457 15.936424-11.1894039 42.129802-7.9682119 45.181457-4.2384105 3.051656 3.8145695-.847682 30.0079465-15.766887 42.5536425-2.288742 1.949669-4.492715.93245-3.475497-1.610596 3.390729-8.392053 10.935099-27.295364 7.374835-31.78808z" fill="#f90"/></svg>