<svg height="73" viewBox="0 0 73 73" width="73" xmlns="http://www.w3.org/2000/svg"><g fill="none" fill-rule="nonzero"><rect fill="#fff" height="71" rx="14" stroke="#134514" stroke-width="2" width="71" x="1" y="1"/><g transform="translate(25 11)"><path d="m12.4944775 50.7282275-1.3484326-.4608837s.1646778-6.8744043-2.3026367-7.3677247c-1.64428222-1.9080517.26376953-80.9177197 6.1843262-.263413 0 0-2.0395801 1.0194335-2.4013721 2.763164-.3949414 1.7105811-.1318848 5.3288574-.1318848 5.3288574z" fill="#a6a385"/><path d="m13.218418 44.0837305s11.8090332-7.7630225 9.0455127-23.913916c-2.6640723-11.74237798-8.9467774-15.59091802-9.6375684-17.0712354-.7563769-1.05258301-1.4803174-2.89433594-1.4803174-2.89433594l.4936768 32.66250974c0 .0331494-1.0197901 9.9997168 1.5790527 11.217334" fill="#499d4a"/><path d="m10.4556104 44.5111084s-11.08544927-7.5655518-10.42745122-20.8869824c.62484863-13.3217871 8.45345703-19.86754885 9.96656738-21.05166018.98699704-1.05258301 1.01979004-1.44752441 1.08573244-2.50010742.690791 1.48031738.5592627 22.1373926.6576416 24.5712012.2958496 9.3745117-.5261133 18.0917383-1.2824902 19.8675488z" fill="#58aa50"/></g></g></svg>