<svg viewBox="0 0 400 300" xmlns="http://www.w3.org/2000/svg"><path d="m273.62 194.21s-20.21 14.86-33.22 16.56a37.46 37.46 0 0 1 -16-1.74v27.29h-52v-26.92a36.79 36.79 0 0 1 -14.81 1.37c-13-1.7-33.21-16.56-33.21-16.56l7.57-10.68s18.47 10.72 24.23 12.15c4.67 1.16 28.61-7.87 30.76-7.87h22.94c1.88 0 26.25 9.3 32 7.87s24.12-12.15 24.12-12.15z" fill="#68e1fd"/><path d="m224.36 237.32h-52a1 1 0 0 1 -1-1v-25.61a36.62 36.62 0 0 1 -13.94 1c-13.12-1.71-32.84-16.13-33.68-16.74a1 1 0 0 1 -.22-1.39l7.54-10.58a1 1 0 0 1 1.32-.28c.18.1 18.41 10.66 24 12 2.82.71 14.93-3.18 22.17-5.5 5-1.62 7.5-2.4 8.35-2.4h22.94c.66 0 2.25.5 7 2 7.35 2.38 21 6.8 24.79 5.87 5.54-1.38 23.77-11.94 23.95-12a1 1 0 0 1 1.32.28l7.58 10.68a1 1 0 0 1 -.22 1.39c-.84.61-20.57 15-33.69 16.74a37 37 0 0 1 -15.16-1.38v25.94a1 1 0 0 1 -1.05.98zm-51-2h50v-26.32a1 1 0 0 1 1.3-.95 35.91 35.91 0 0 0 15.61 1.7c11.17-1.46 28.1-13.07 32-15.8l-6.47-9.13c-3.65 2.1-18.49 10.51-23.69 11.8-4 1-15-2.38-25.89-5.91-2.87-.93-5.85-1.89-6.38-1.93h-22.97c-.64 0-4.25 1.18-7.74 2.3-10.89 3.49-20.15 6.31-23.27 5.54-5.2-1.29-20.05-9.7-23.69-11.8l-6.47 9.18c3.85 2.73 20.78 14.34 32 15.8a35.52 35.52 0 0 0 14.4-1.34 1 1 0 0 1 1.28 1z" fill="#093f68"/><path d="m131.11 184.61s-11.17-10.38-11.42-8.5 2.88 4.75 2.88 4.75-11.64-4.12-13-1.75-.93 4.51.32 6.88 15 7.36 15 7.36z" fill="#ffc9b0"/><path d="m124.91 194.35a1 1 0 0 1 -.34-.06c-3.32-1.2-14.26-5.31-15.59-7.83-1.14-2.16-2.06-4.79-.29-7.85 1.22-2.11 6.43-1.11 10.85.21a4.58 4.58 0 0 1 -.84-2.84 1.22 1.22 0 0 1 .8-1c.58-.21 1.94-.7 12.3 8.92a1 1 0 0 1 .13 1.31l-6.2 8.74a1 1 0 0 1 -.82.4zm-13.28-15c-.63 0-1 .08-1.21.27-1 1.8-1 3.46.33 5.91.64 1.21 7.51 4.31 13.79 6.62l5.25-7.4a97.09 97.09 0 0 0 -8.7-7.25 12.38 12.38 0 0 0 2.16 2.63 1 1 0 0 1 -1 1.68c-4.25-1.5-8.54-2.46-10.62-2.46z" fill="#093f68"/><path d="m210.2 187.81-11.65 44.09-11.9-44.09z" fill="#fff"/><path d="m198.55 232.9a1 1 0 0 1 -1-.74l-11.9-44.09a1 1 0 0 1 .17-.87 1 1 0 0 1 .79-.39h23.59a1 1 0 0 1 .79.39 1 1 0 0 1 .17.87l-11.64 44.09a1 1 0 0 1 -1 .74zm-10.55-44.09 10.54 39.19 10.36-39.21z" fill="#093f68"/><path d="m194.45 184.35h9.1a0 0 0 0 1 0 0v5.24a3.87 3.87 0 0 1 -3.87 3.87h-1.37a3.87 3.87 0 0 1 -3.87-3.87v-5.24a0 0 0 0 1 .01 0z" fill="#ffc9b0"/><path d="m199.69 194.46h-1.37a4.88 4.88 0 0 1 -4.87-4.87v-5.24a1 1 0 0 1 1-1h9.1a1 1 0 0 1 1 1v5.24a4.87 4.87 0 0 1 -4.86 4.87zm-4.24-9.11v4.24a2.88 2.88 0 0 0 2.87 2.87h1.37a2.87 2.87 0 0 0 2.86-2.87v-4.24z" fill="#093f68"/><path d="m168.69 158.22c-2.22-2.75-2.36-8.6-2.53-11.92a46.56 46.56 0 0 1 1.63-16.3c2.32-7.43 7.81-14.27 15.32-16.31a13.07 13.07 0 0 0 2.46-.79 12.51 12.51 0 0 0 1.87-1.3c10.26-7.84 26.31-4.15 35.07 4.28 6.26 6 9.63 14.57 10.47 23.12.53 5.38 1.33 21.36-7.3 19.85-2.37-.42-5.33.16-7.72.24l-17.64.55c-6.32.22-26.58 4.84-31.63-1.42z" fill="#725858"/><path d="m180.18 162.5c-5.31 0-10-.85-12.27-3.66-2.28-2.82-2.54-8.24-2.71-11.82v-.67a47 47 0 0 1 1.68-16.63c2.65-8.51 8.78-15 16-17l.53-.14a8.66 8.66 0 0 0 1.74-.57 8.75 8.75 0 0 0 1.38-1l.33-.25c10.62-8.12 27.38-4.31 36.37 4.35 6 5.79 9.84 14.22 10.78 23.74.44 4.54 1 15.54-3.29 19.53a5.76 5.76 0 0 1 -5.18 1.4 19.91 19.91 0 0 0 -5 .07c-.89.08-1.73.16-2.54.19l-17.64.55c-1.39 0-3.54.32-6 .63a115.48 115.48 0 0 1 -14.18 1.28zm20.82-54.18a21.1 21.1 0 0 0 -13 4.09l-.32.25a8 8 0 0 1 -3.86 1.88l-.5.13c-6.57 1.79-12.17 7.79-14.62 15.64a44.76 44.76 0 0 0 -1.59 15.94v.67c.15 3.12.41 8.35 2.28 10.67 3.55 4.4 16.72 2.72 24.58 1.72 2.55-.32 4.76-.6 6.24-.65l17.64-.55c.75 0 1.56-.1 2.41-.18a21.67 21.67 0 0 1 5.51-.05 3.84 3.84 0 0 0 3.48-.9c3-2.76 3.33-11 2.66-17.86-.89-9.05-4.51-17-10.18-22.5a31.09 31.09 0 0 0 -20.73-8.3z" fill="#093f68"/><ellipse cx="172.98" cy="160.7" fill="#ffc9b0" rx="8.85" ry="7.62"/><path d="m173 169.32c-5.43 0-9.84-3.86-9.84-8.62s4.41-8.62 9.84-8.62 9.85 3.87 9.85 8.62-4.44 8.62-9.85 8.62zm0-15.24c-4.32 0-7.84 3-7.84 6.62s3.52 6.62 7.84 6.62 7.85-3 7.85-6.62-3.54-6.62-7.85-6.62z" fill="#093f68"/><ellipse cx="224.55" cy="160.7" fill="#ffc9b0" rx="8.85" ry="7.62"/><path d="m224.55 169.32c-5.43 0-9.84-3.86-9.84-8.62s4.41-8.62 9.84-8.62 9.85 3.87 9.85 8.62-4.4 8.62-9.85 8.62zm0-15.24c-4.32 0-7.84 3-7.84 6.62s3.52 6.62 7.84 6.62 7.85-3 7.85-6.62-3.52-6.62-7.85-6.62z" fill="#093f68"/><path d="m199 185.54a26.68 26.68 0 0 1 -26.68-26.67v-19.37c1.56 2.56 6.74 1.54 14.33-11.48 28.42 14.4 39 6.14 39 6.14v24.71a26.67 26.67 0 0 1 -26.65 26.67z" fill="#ffc9b0"/><path d="m199 186.54a27.71 27.71 0 0 1 -27.68-27.67v-19.37a1 1 0 0 1 .73-1 1 1 0 0 1 1.13.45 1.36 1.36 0 0 0 1.21.64c1 0 4.87-.91 11.4-12.11a1 1 0 0 1 1.31-.38c27.54 14 37.86 6.32 38 6.25a1 1 0 0 1 1.61.78v24.71a27.71 27.71 0 0 1 -27.71 27.7zm-25.68-45.06v17.39a25.68 25.68 0 0 0 51.36 0v-23c-3.93 1.78-15.31 4.57-37.64-6.53-4.73 7.91-9.2 12.26-12.63 12.29a3.47 3.47 0 0 1 -1.09-.15z" fill="#093f68"/><circle cx="187.5" cy="154.98" fill="#093f68" r="2.47"/><circle cx="210.51" cy="154.98" fill="#093f68" r="2.47"/><path d="m198.93 166.2a16.09 16.09 0 0 1 -2.45-.2 1 1 0 0 1 -.81-1.16 1 1 0 0 1 1.16-.81 12.15 12.15 0 0 0 3.41.07 18.26 18.26 0 0 0 -2.07-5.54 1 1 0 0 1 .43-1.35 1 1 0 0 1 1.34.42c.88 1.69 2.85 5.8 2.1 7.46a1.52 1.52 0 0 1 -1 .89 8.85 8.85 0 0 1 -2.11.22z" fill="#093f68"/><rect fill="#f56132" height="5.31" rx="1.96" width="6.75" x="195.18" y="194.34"/><path d="m200 200.65h-2.83a3 3 0 0 1 -2.95-3v-1.35a3 3 0 0 1 2.95-3h2.83a3 3 0 0 1 3 3v1.39a3 3 0 0 1 -3 2.96zm-2.83-5.31a1 1 0 0 0 -.95 1v1.39a1 1 0 0 0 .95 1h2.83a1 1 0 0 0 1-1v-1.43a1 1 0 0 0 -1-1z" fill="#093f68"/><path d="m202.48 217.03-3.93 14.87-4.35-16.12 2.41-16.13h3.87z" fill="#f56132"/><g fill="#093f68"><path d="m198.55 232.9a1 1 0 0 1 -1-.74l-4.32-16.16a1.14 1.14 0 0 1 0-.41l2.41-16.13a1 1 0 0 1 1-.85h3.87a1 1 0 0 1 1 .89l2 17.38a.78.78 0 0 1 0 .37l-3.92 14.87a1 1 0 0 1 -1 .74zm-3.33-17.18 3.32 12.3 2.92-11.02-1.87-16.31h-2.12z"/><path d="m192.09 144.82h-12.87a2 2 0 1 1 0-4h12.87a2 2 0 0 1 0 4z"/><path d="m218.78 144.82h-12.86a2 2 0 0 1 0-4h12.86a2 2 0 1 1 0 4z"/><path d="m199.48 176.88a10.52 10.52 0 0 1 -10.48-10.51 1 1 0 0 1 2 0 8.52 8.52 0 0 0 17 0 1 1 0 0 1 2 0 10.52 10.52 0 0 1 -10.52 10.51z"/><path d="m186.65 163.43a8.57 8.57 0 1 1 8.57-8.57 8.58 8.58 0 0 1 -8.57 8.57zm0-15.14a6.57 6.57 0 1 0 6.57 6.57 6.58 6.58 0 0 0 -6.57-6.57z"/><path d="m210.2 163.43a8.57 8.57 0 1 1 8.57-8.57 8.57 8.57 0 0 1 -8.57 8.57zm0-15.14a6.57 6.57 0 1 0 6.57 6.57 6.57 6.57 0 0 0 -6.57-6.57z"/><path d="m202.69 154.91a1 1 0 0 1 -.41-.09 8.66 8.66 0 0 0 -7.56 0 1 1 0 0 1 -1-1.73 10.62 10.62 0 0 1 9.38 0 1 1 0 0 1 .5 1.32 1 1 0 0 1 -.91.5z"/><path d="m179.08 155.86a.9.9 0 0 1 -.28 0l-6.1-1.86a1 1 0 0 1 .56-1.92l6.1 1.78a1 1 0 0 1 -.28 2z"/><path d="m217.77 155.86a1 1 0 0 1 -.22-2l8.35-1.86a1 1 0 0 1 .45 1.95l-8.35 1.88a.83.83 0 0 1 -.23.03z"/><path d="m120.88 186.24a1 1 0 0 1 -.91-.57c-1.14-2.45 1.59-5.21 1.9-5.52a1 1 0 0 1 1.4 1.43c-.67.66-1.92 2.32-1.48 3.24a1 1 0 0 1 -.49 1.33 1 1 0 0 1 -.42.09z"/></g><path d="m266.8 184.61s11.17-10.38 11.42-8.5-2.87 4.75-2.87 4.75 11.63-4.12 13-1.75.94 4.51-.31 6.88-15.04 7.36-15.04 7.36z" fill="#ffc9b0"/><path d="m273 194.35a1 1 0 0 1 -.81-.42l-6.19-8.74a1 1 0 0 1 .14-1.31c10.35-9.62 11.71-9.13 12.29-8.92a1.22 1.22 0 0 1 .8 1 4.52 4.52 0 0 1 -.84 2.84c4.43-1.32 9.63-2.32 10.85-.21 1.78 3.06.85 5.69-.29 7.85-1.33 2.52-12.27 6.63-15.59 7.83a1 1 0 0 1 -.36.08zm-4.88-9.6 5.26 7.4c6.27-2.31 13.14-5.41 13.78-6.62 1.29-2.45 1.38-4.11.33-5.92-.68-.79-6.31.25-11.81 2.2a1 1 0 0 1 -1-1.68 12.38 12.38 0 0 0 2.16-2.63 95.57 95.57 0 0 0 -8.72 7.25z" fill="#093f68"/><path d="m277 186.24a1.06 1.06 0 0 1 -.42-.09 1 1 0 0 1 -.48-1.33c.43-.92-.84-2.61-1.48-3.24a1 1 0 1 1 1.39-1.43c.32.31 3 3.07 1.9 5.52a1 1 0 0 1 -.91.57z" fill="#093f68"/><path d="m101.2 137.41h26.28v28.91h-26.28z" fill="#70cc40"/><path d="m127.48 167.31h-26.28a1 1 0 0 1 -1-1v-28.9a1 1 0 0 1 1-1h26.28a1 1 0 0 1 1 1v28.9a1 1 0 0 1 -1 1zm-25.28-2h24.28v-26.9h-24.28z" fill="#093f68"/><path d="m95.57 131.38h26.28v28.91h-26.28z" fill="#fff"/><path d="m121.85 161.29h-26.28a1 1 0 0 1 -1-1v-28.91a1 1 0 0 1 1-1h26.28a1 1 0 0 1 1 1v28.91a1 1 0 0 1 -1 1zm-25.28-2h24.28v-26.91h-24.28z" fill="#093f68"/><path d="m117.14 140.08h-16a1 1 0 0 1 0-2h16a1 1 0 1 1 0 2z" fill="#dfeaef"/><path d="m110.73 146.83h-9.57a1 1 0 0 1 0-2h9.57a1 1 0 0 1 0 2z" fill="#dfeaef"/><path d="m116.22 146.83h-1.88a1 1 0 0 1 0-2h1.88a1 1 0 0 1 0 2z" fill="#dfeaef"/><path d="m107.71 153.59h-7.11a1 1 0 0 1 0-2h7.11a1 1 0 1 1 0 2z" fill="#dfeaef"/><path d="m154 111.55h-39.66a1 1 0 0 1 -1-1v-21.78a1 1 0 0 1 2 0v20.78h38.66a1 1 0 0 1 0 2z" fill="#093f68"/><path d="m119.78 103.72h6.82v6.82h-6.82z" fill="#f56132"/><path d="m126.6 111.55h-6.82a1 1 0 0 1 -1-1v-6.83a1 1 0 0 1 1-1h6.82a1 1 0 0 1 1 1v6.83a1 1 0 0 1 -1 1zm-5.82-2h4.82v-4.83h-4.82z" fill="#093f68"/><path d="m131.22 99.66h6.82v10.89h-6.82z" fill="#ffbc0e"/><path d="m138 111.55h-6.82a1 1 0 0 1 -1-1v-10.89a1 1 0 0 1 1-1h6.82a1 1 0 0 1 1 1v10.89a1 1 0 0 1 -1 1zm-5.82-2h4.82v-8.89h-4.82z" fill="#093f68"/><path d="m142.66 92.44h6.82v18.11h-6.82z" fill="#70cc40"/><path d="m149.49 111.55h-6.83a1 1 0 0 1 -1-1v-18.11a1 1 0 0 1 1-1h6.83a1 1 0 0 1 1 1v18.11a1 1 0 0 1 -1 1zm-5.83-2h4.83v-16.11h-4.83z" fill="#093f68"/><path d="m254.34 88.64h34.87v26.28h-34.87z" fill="#fff"/><path d="m289.21 115.92h-34.87a1 1 0 0 1 -1-1v-26.28a1 1 0 0 1 1-1h34.87a1 1 0 0 1 1 1v26.28a1 1 0 0 1 -1 1zm-33.87-2h32.87v-24.28h-32.87z" fill="#093f68"/><path d="m254.34 84.4h34.87v4.25h-34.87z" fill="#ffbc0e"/><path d="m289.21 89.64h-34.87a1 1 0 0 1 -1-1v-4.24a1 1 0 0 1 1-1h34.87a1 1 0 0 1 1 1v4.24a1 1 0 0 1 -1 1zm-33.87-2h32.87v-2.24h-32.87z" fill="#093f68"/><path d="m281.66 109.73h-21a1 1 0 0 1 -1-1v-14.64a1 1 0 1 1 2 0v13.64h20a1 1 0 0 1 0 2z" fill="#dfeaef"/><path d="m260.7 109.73a.84.84 0 0 1 -.35-.07 1 1 0 0 1 -.59-1.28c.25-.67 2.53-6.56 5.61-7.87a3.09 3.09 0 0 1 2.51 0 6.74 6.74 0 0 1 2.92 2.61c.27.39.58.82.76.85s.61 0 2-1.08a13.84 13.84 0 0 0 3.63-4.57c1-1.77 1.95-3.45 4.24-4a1 1 0 1 1 .51 1.93c-1.41.37-2 1.32-3 3.11a15.81 15.81 0 0 1 -4.13 5.16c-1.51 1.18-2.56 1.62-3.5 1.48a3.21 3.21 0 0 1 -2.1-1.68 4.85 4.85 0 0 0 -2.09-1.92 1.08 1.08 0 0 0 -.93 0c-1.73.74-3.69 4.52-4.51 6.73a1 1 0 0 1 -.98.6z" fill="#dfeaef"/><circle cx="204.58" cy="76.88" fill="#ffbc0e" r="17.2"/><path d="m204.58 95.09a18.21 18.21 0 1 1 18.2-18.21 18.23 18.23 0 0 1 -18.2 18.21zm0-34.41a16.21 16.21 0 1 0 16.2 16.2 16.22 16.22 0 0 0 -16.2-16.2z" fill="#093f68"/><path d="m204.58 76.88 13.81 10.26a17.21 17.21 0 1 1 -14.68-27.44z" fill="#70cc40"/><path d="m204.58 95.09a18.21 18.21 0 0 1 -.92-36.39 1 1 0 0 1 1.05.95l.84 16.71 13.44 10a1 1 0 0 1 .2 1.4 18.29 18.29 0 0 1 -14.61 7.33zm-1.81-34.31a16.21 16.21 0 1 0 14.23 26.55l-13-9.65a1 1 0 0 1 -.4-.75z" fill="#093f68"/><path d="m179 75.35h4.34a0 0 0 0 1 0 0v23.27a2.17 2.17 0 0 1 -2.17 2.17 2.17 2.17 0 0 1 -2.17-2.17v-23.27a0 0 0 0 1 0 0z" fill="#68e1fd" transform="matrix(.70710678 .70710678 -.70710678 .70710678 115.33 -102.31)"/><path d="m173.7 98.7a3.14 3.14 0 0 1 -2.24-.93 3.16 3.16 0 0 1 -.93-2.24 3.12 3.12 0 0 1 .93-2.24l16.46-16.46a1 1 0 0 1 1.41 0l3.07 3.07a1 1 0 0 1 0 1.41l-16.46 16.46a3.14 3.14 0 0 1 -2.24.93zm14.92-19.7-15.75 15.7a1.17 1.17 0 0 0 0 1.65 1.19 1.19 0 0 0 1.66 0l15.75-15.74z" fill="#093f68"/><circle cx="190.16" cy="79.07" fill="#68e1fd" r="10.56"/><path d="m190.16 90.62a11.55 11.55 0 1 1 8.17-3.38 11.54 11.54 0 0 1 -8.17 3.38zm0-21.1a9.55 9.55 0 1 0 6.75 2.79 9.53 9.53 0 0 0 -6.75-2.79z" fill="#093f68"/><circle cx="190.16" cy="79.07" fill="#fff" r="6.71"/><path d="m190.16 86.78a7.72 7.72 0 1 1 5.45-2.26 7.65 7.65 0 0 1 -5.45 2.26zm0-13.42a5.71 5.71 0 1 0 4 9.75 5.71 5.71 0 0 0 -4-9.75z" fill="#093f68"/><path d="m304.41 146.28a2.2 2.2 0 0 0 -1.7-2.06c-.83-.18-1.66-.31-2.49-.44a.53.53 0 0 1 -.49-.41c-.25-.66-.53-1.31-.81-2a.42.42 0 0 1 0-.5c.5-.69 1-1.37 1.47-2.09a2.17 2.17 0 0 0 -.19-2.66c-.76-.84-1.58-1.62-2.37-2.42a2.33 2.33 0 0 0 -3.18-.29q-.94.65-1.86 1.32a.42.42 0 0 1 -.5 0q-1.05-.47-2.13-.87a.45.45 0 0 1 -.32-.39c-.12-.76-.25-1.52-.38-2.28a2.3 2.3 0 0 0 -2.2-2q-1.76 0-3.51 0a2.21 2.21 0 0 0 -2.13 1.74c-.19.85-.32 1.71-.46 2.57a.45.45 0 0 1 -.32.39c-.69.27-1.37.56-2 .86a.39.39 0 0 1 -.47 0c-.68-.51-1.36-1-2.06-1.47a2.19 2.19 0 0 0 -2.69.17c-.89.82-1.76 1.67-2.58 2.56a2.25 2.25 0 0 0 -.15 3c.45.66.93 1.3 1.38 2a.43.43 0 0 1 0 .35c-.28.73-.58 1.46-.89 2.19a.43.43 0 0 1 -.28.23c-.75.14-1.51.26-2.27.38a2.31 2.31 0 0 0 -2 2.14v3.67a2.2 2.2 0 0 0 1.69 2c.87.2 1.75.33 2.63.48a.43.43 0 0 1 .37.3c.27.7.57 1.38.87 2.07a.36.36 0 0 1 0 .44c-.46.63-.92 1.26-1.36 1.9a2.32 2.32 0 0 0 .26 3.09c.74.75 1.48 1.49 2.23 2.22a2.3 2.3 0 0 0 3.16.24c.64-.45 1.28-.9 1.9-1.36a.38.38 0 0 1 .42 0c.65.28 1.3.56 2 .8a.51.51 0 0 1 .37.46c.11.76.23 1.51.37 2.25a2.27 2.27 0 0 0 2.1 2h3.7a2.2 2.2 0 0 0 2-1.72c.18-.83.31-1.67.45-2.51a.49.49 0 0 1 .35-.44c.69-.26 1.37-.55 2-.85a.41.41 0 0 1 .45 0l1.9 1.36a2.43 2.43 0 0 0 1.54.47 2 2 0 0 0 1.36-.56c.81-.76 1.59-1.55 2.37-2.33a2.35 2.35 0 0 0 .29-3.24c-.43-.62-.87-1.24-1.32-1.85a.41.41 0 0 1 -.05-.45c.3-.68.59-1.37.86-2.07a.46.46 0 0 1 .4-.32c.76-.11 1.52-.24 2.28-.37a2.29 2.29 0 0 0 2-2.18q.04-1.72-.01-3.52zm-18.81 9.93a8.11 8.11 0 1 1 8.14-8.1 8.11 8.11 0 0 1 -8.14 8.1z" fill="#f56132" stroke="#093f68" stroke-linecap="round" stroke-linejoin="round" stroke-width="2"/></svg>