<svg enable-background="new 0 0 500 500" viewBox="0 0 500 500" xmlns="http://www.w3.org/2000/svg"><path d="m267 292.1v-16.3c0-6.1-4.9-11-11-11h-11.2c-4.7 0-8.9-2.9-10.4-7.3-1-3.1-2.3-6.1-3.7-9.1-2.1-4.2-1.1-9.2 2.2-12.5l7.9-7.9c4.3-4.3 4.3-11.3 0-15.6l-6.7-6.7c-4.3-4.3-11.3-4.3-15.6 0l-7.9 7.9c-3.3 3.3-8.3 4.2-12.5 2.2-2.9-1.5-6-2.7-9.1-3.7-4.4-1.5-7.3-5.7-7.3-10.4v-11.2c0-6.1-4.9-11-11-11h-9.4c-6.1 0-11 4.9-11 11v11.2c0 4.7-2.9 8.9-7.3 10.4-3.1 1-6.1 2.3-9.1 3.7-4.2 2.1-9.2 1.1-12.5-2.2l-7.9-7.9c-4.3-4.3-11.3-4.3-15.6 0l-6.7 6.7c-4.3 4.3-4.3 11.3 0 15.6l7.9 7.9c3.3 3.3 4.2 8.3 2.2 12.5-1.5 2.9-2.7 6-3.7 9.1-1.5 4.4-5.7 7.3-10.4 7.3h-11.2c-6.1 0-11 4.9-11 11v16.3z" fill="#aab1ba"/><path d="m267 297.1h-202c-2.8 0-5-2.2-5-5v-16.3c0-8.8 7.2-16 16-16h11.2c2.6 0 4.8-1.6 5.6-3.9 1.1-3.3 2.5-6.6 4-9.7 1.1-2.2.6-4.9-1.2-6.7l-7.9-7.9c-3-3-4.7-7-4.7-11.3s1.7-8.3 4.7-11.3l6.7-6.7c6.2-6.2 16.4-6.2 22.6 0l7.9 7.9c1.8 1.8 4.5 2.3 6.7 1.2 3.1-1.5 6.4-2.9 9.7-4 2.4-.8 3.9-3.1 3.9-5.6v-11.2c0-8.8 7.2-16 16-16h9.4c8.8 0 16 7.2 16 16v11.2c0 2.6 1.6 4.8 3.9 5.6 3.3 1.1 6.6 2.5 9.7 4 2.2 1.1 4.9.6 6.7-1.2l7.9-7.9c6.2-6.2 16.4-6.2 22.6 0l6.7 6.7c6.2 6.2 6.2 16.4 0 22.6l-7.9 7.9c-1.8 1.8-2.3 4.5-1.2 6.7 1.5 3.1 2.9 6.4 4 9.7.8 2.4 3.1 3.9 5.6 3.9h11.4c8.8 0 16 7.2 16 16v16.3c0 2.7-2.2 5-5 5zm-197-10h192v-11.3c0-3.3-2.7-6-6-6h-11.2c-6.9 0-13-4.3-15.1-10.8-1-2.9-2.1-5.7-3.5-8.4-3-6.1-1.8-13.4 3.1-18.3l7.9-7.9c2.3-2.3 2.3-6.2 0-8.5l-6.7-6.7c-2.3-2.3-6.2-2.3-8.5 0l-7.9 7.9c-4.9 4.9-12.2 6.1-18.3 3.1-2.7-1.3-5.5-2.5-8.4-3.5-6.4-2.2-10.8-8.2-10.8-15.1v-11.2c0-3.3-2.7-6-6-6h-9.4c-3.3 0-6 2.7-6 6v11.2c0 6.9-4.3 13-10.8 15.1-2.9 1-5.7 2.1-8.4 3.5-6.1 3-13.4 1.8-18.3-3.1l-7.9-7.9c-2.3-2.3-6.2-2.3-8.5 0l-6.7 6.7c-1.1 1.1-1.8 2.6-1.8 4.2s.6 3.1 1.8 4.2l7.9 7.9c4.9 4.9 6.1 12.2 3.1 18.3-1.3 2.7-2.5 5.5-3.5 8.4-2.2 6.4-8.2 10.8-15.1 10.8h-11c-3.3 0-6 2.7-6 6z" fill="#1c1d21"/><path d="m127.1 292.1c0-21.5 17.5-39 39-39s39 17.5 39 39z" fill="#fddf7f"/><path d="m205 297.1h-77.9c-2.8 0-5-2.2-5-5 0-24.2 19.7-44 44-44 24.2 0 44 19.7 44 44-.1 2.7-2.4 5-5.1 5zm-72.6-10h67.2c-2.4-16.4-16.6-29-33.6-29s-31.1 12.6-33.6 29z" fill="#1c1d21"/><path d="m40 336v104c0 11 9 20 20 20h380c11 0 20-9 20-20v-104z" fill="#83e1e5"/><path d="m460 128v-65.6c0-11-9-20-20-20h-380c-11 0-20 9-20 20v65.6z" fill="#83e1e5"/><g fill="#1c1d21"><path d="m465 500h-430c-19.3 0-35-15.7-35-35v-430c0-19.3 15.7-35 35-35h430c19.3 0 35 15.7 35 35v430c0 19.3-15.7 35-35 35zm-430-490c-13.8 0-25 11.2-25 25v430c0 13.8 11.2 25 25 25h430c13.8 0 25-11.2 25-25v-430c0-13.8-11.2-25-25-25z"/><path d="m40 97.7c-2.8 0-5-2.2-5-5v-30.3c0-13.8 11.2-25 25-25h4.3c2.8 0 5 2.2 5 5s-2.2 5-5 5h-4.3c-8.3 0-15 6.7-15 15v30.3c0 2.7-2.2 5-5 5z"/><path d="m104 47.4h-15c-2.8 0-5-2.2-5-5s2.2-5 5-5h15c2.8 0 5 2.2 5 5 0 2.7-2.2 5-5 5z"/><path d="m440 465h-4.3c-2.8 0-5-2.2-5-5s2.2-5 5-5h4.3c8.3 0 15-6.7 15-15v-30.3c0-2.8 2.2-5 5-5s5 2.2 5 5v30.3c0 13.8-11.2 25-25 25z"/><path d="m411 465h-15c-2.8 0-5-2.2-5-5s2.2-5 5-5h15c2.8 0 5 2.2 5 5s-2.2 5-5 5z"/></g><path d="m128.3 368.3h-48.6c-5.5 0-10 4.5-10 10v33.3c0 5.5 4.5 10 10 10h48.7c5.5 0 10-4.5 10-10v-33.3c-.1-5.5-4.5-10-10.1-10z" fill="#fff"/><path d="m225.7 368.3h-48.7c-5.5 0-10 4.5-10 10v33.3c0 5.5 4.5 10 10 10h48.7c5.5 0 10-4.5 10-10v-33.3c0-5.5-4.5-10-10-10z" fill="#fff"/><path d="m323 368.3h-48.7c-5.5 0-10 4.5-10 10v33.3c0 5.5 4.5 10 10 10h48.7c5.5 0 10-4.5 10-10v-33.3c0-5.5-4.5-10-10-10z" fill="#fff"/><path d="m420.3 368.3h-48.7c-5.5 0-10 4.5-10 10v33.3c0 5.5 4.5 10 10 10h48.7c5.5 0 10-4.5 10-10v-33.3c0-5.5-4.4-10-10-10z" fill="#fff"/><path d="m445 345.7h-390c-11 0-20-9-20-20v-185.4c0-11 9-20 20-20h390c11 0 20 9 20 20v185.4c0 11.1-9 20-20 20zm-390-215.4c-5.5 0-10 4.5-10 10v185.4c0 5.5 4.5 10 10 10h390c5.5 0 10-4.5 10-10v-185.4c0-5.5-4.5-10-10-10z" fill="#1c1d21"/><path d="m40 292v33.7c0 8.3 6.7 15 15 15h390c8.3 0 15-6.7 15-15v-33.7z" fill="#fddf7f"/><path d="m445 345.7h-390c-11 0-20-9-20-20v-33.7c0-2.8 2.2-5 5-5h420c2.8 0 5 2.2 5 5v33.7c0 11.1-9 20-20 20zm-400-48.7v28.7c0 5.5 4.5 10 10 10h390c5.5 0 10-4.5 10-10v-28.7z" fill="#1c1d21"/><path d="m430.3 184.5h-140c-2.8 0-5-2.2-5-5s2.2-5 5-5h140c2.8 0 5 2.2 5 5s-2.2 5-5 5z" fill="#1c1d21"/><path d="m430.3 223.8h-140c-2.8 0-5-2.2-5-5s2.2-5 5-5h140c2.8 0 5 2.2 5 5s-2.2 5-5 5z" fill="#1c1d21"/><path d="m430.3 263.2h-140c-2.8 0-5-2.2-5-5s2.2-5 5-5h140c2.8 0 5 2.2 5 5 0 2.7-2.2 5-5 5z" fill="#1c1d21"/></svg>