<svg xmlns="http://www.w3.org/2000/svg" xmlns:xlink="http://www.w3.org/1999/xlink" width="500" zoomAndPan="magnify" viewBox="0 0 375 374.999991" height="500" preserveAspectRatio="xMidYMid meet" version="1.0"><defs><clipPath id="a31ca72ad5"><path d="M 69.625 56.164062 L 305.125 56.164062 L 305.125 318.664062 L 69.625 318.664062 Z M 69.625 56.164062 " clip-rule="nonzero"/></clipPath></defs><g clip-path="url(#a31ca72ad5)"><path fill="#1b00ff" d="M 305.089844 151.949219 L 305.089844 174.484375 C 305.089844 184.84375 296.707031 193.265625 286.402344 193.265625 C 276.097656 193.265625 267.714844 184.839844 267.714844 174.484375 L 267.714844 158.0625 C 267.703125 157.878906 267.605469 157.722656 267.605469 157.535156 C 267.605469 111.992188 231.558594 74.941406 187.246094 74.941406 C 143.953125 74.941406 108.644531 110.328125 107.039062 154.425781 L 107.039062 178.242188 C 107.039062 190.671875 117.097656 200.78125 129.464844 200.78125 C 133.59375 200.78125 136.941406 204.144531 136.941406 208.292969 C 136.941406 212.441406 133.59375 215.804688 129.464844 215.804688 C 113.714844 215.804688 100.277344 205.933594 94.78125 192.050781 C 92.765625 192.796875 90.617188 193.265625 88.347656 193.265625 C 78.042969 193.269531 69.660156 184.84375 69.660156 174.488281 L 69.660156 151.949219 C 69.660156 141.59375 78.042969 133.167969 88.347656 133.167969 C 89.300781 133.167969 90.222656 133.3125 91.136719 133.453125 C 101.742188 89.164062 140.75 56.164062 187.246094 56.164062 C 233.75 56.164062 272.765625 89.175781 283.359375 133.476562 C 284.355469 133.3125 285.359375 133.167969 286.402344 133.167969 C 296.707031 133.167969 305.089844 141.59375 305.089844 151.949219 Z M 248.871094 157.535156 C 248.871094 123.335938 221.277344 95.605469 187.242188 95.605469 C 153.210938 95.605469 125.621094 123.335938 125.621094 157.535156 C 125.621094 191.742188 153.210938 219.46875 187.242188 219.46875 C 221.277344 219.46875 248.871094 191.742188 248.871094 157.535156 Z M 248.59375 238.25 L 226.652344 238.25 C 221.769531 238.25 217.191406 240.648438 214.394531 244.671875 L 199.058594 266.734375 C 193.058594 275.363281 180.316406 275.28125 174.433594 266.570312 L 159.746094 244.835938 C 156.964844 240.714844 152.332031 238.25 147.378906 238.25 L 125.835938 238.25 C 98.085938 238.25 75.589844 260.855469 75.589844 288.742188 L 75.589844 311.148438 C 75.589844 315.300781 78.9375 318.660156 83.066406 318.660156 L 291.359375 318.660156 C 295.488281 318.660156 298.835938 315.296875 298.835938 311.148438 L 298.835938 288.742188 C 298.835938 260.855469 276.339844 238.25 248.59375 238.25 Z M 248.59375 238.25 " fill-opacity="1" fill-rule="nonzero"/></g></svg>