<svg xmlns="http://www.w3.org/2000/svg" enable-background="new 0 0 512 512" version="1" viewBox="0 0 512 512"><path fill="#00C8FF" d="M93.867,12.8h326.016C470.547,12.8,512,54.253,512,104.918v314.965C512,470.547,470.547,512,419.883,512
			H92.118C41.453,512,0,470.547,0,419.882V106.667C0,54.933,42.134,12.8,93.867,12.8"/><path fill="#001D26" d="M98.133,34.133h317.482c41.45,0,75.051,33.601,75.051,75.051v306.431c0,41.45-33.602,75.051-75.051,75.051
			H96.384c-41.45,0-75.051-33.601-75.051-75.051V110.933C21.333,68.267,55.466,34.133,98.133,34.133"/><path fill="#FFF" d="M341.146,233.353c-16.816,0-21.861,8.408-21.861,15.135c0,6.727,4.204,12.612,26.275,24.384
				c32.792,15.765,43.722,31.11,43.722,53.812c0,33.633-25.224,52.131-60.539,52.131c-15.122,0.671-30.167-2.512-43.722-9.249
				c-1.682-0.841-1.682-1.682-1.682-3.363v-31.11c0-1.682,0.841-2.522,2.522-1.682c12.437,8.315,27.081,12.708,42.041,12.612
				c16.816,0,23.543-6.727,23.543-15.765c0-7.567-5.255-14.294-26.276-25.224c-29.429-14.294-42.041-28.588-42.041-52.971
				c0-26.906,21.02-49.608,57.806-49.608c12.875-0.52,25.728,1.479,37.837,5.886c1.579,0.582,2.388,2.334,1.806,3.914
				c-0.036,0.099-0.078,0.196-0.124,0.29v28.588c0,1.682-0.841,2.522-3.363,1.682c-10.967-6.006-23.232-9.253-35.735-9.459H341.146z
				 M263.37,216.537c0,53.812-38.678,76.514-86.604,76.514h-15.765v80.718c0.189,1.204-0.634,2.334-1.839,2.522
				c-0.227,0.036-0.457,0.036-0.684,0h-33.212c-1.204,0.189-2.334-0.634-2.522-1.839c-0.036-0.227-0.036-0.457,0-0.684l0.841-227.02
				c0-1.682,3.363-2.522,5.255-2.522c13.453-0.841,33.633-0.841,53.812-0.841C240.458,143.386,263.37,175.337,263.37,216.537z
				 M225.113,216.537c0-26.906-16.816-40.359-44.563-40.359c-6.738-0.24-13.485,0.042-20.18,0.841v81.559h16.816
				C201.781,258.578,225.113,250.17,225.113,216.537z"/><path fill="#00C8FF" d="M341.146,233.353c-16.816,0-21.861,8.408-21.861,15.135c0,6.727,4.204,12.612,26.275,24.384
				c32.792,15.765,43.722,31.11,43.722,53.812c0,33.633-25.224,52.131-60.539,52.131c-15.122,0.671-30.167-2.512-43.722-9.249
				c-1.682-0.841-1.682-1.682-1.682-3.363v-31.11c0-1.682,0.841-2.522,2.522-1.682c12.437,8.315,27.081,12.708,42.041,12.612
				c16.816,0,23.543-6.727,23.543-15.765c0-7.567-5.255-14.294-26.276-25.224c-29.429-14.294-42.041-28.588-42.041-52.971
				c0-26.906,21.02-49.608,57.806-49.608c12.875-0.52,25.728,1.479,37.837,5.886c1.579,0.582,2.388,2.334,1.806,3.914
				c-0.036,0.099-0.078,0.196-0.124,0.29v28.588c0,1.682-0.841,2.522-3.363,1.682c-10.967-6.006-23.232-9.253-35.735-9.459H341.146z
				 M263.37,216.537c0,53.812-38.678,76.514-86.604,76.514h-15.765v80.718c0.189,1.204-0.634,2.334-1.839,2.522
				c-0.227,0.036-0.457,0.036-0.684,0h-33.212c-1.204,0.189-2.334-0.634-2.522-1.839c-0.036-0.227-0.036-0.457,0-0.684l0.841-227.02
				c0-1.682,3.363-2.522,5.255-2.522c13.453-0.841,33.633-0.841,53.812-0.841C240.458,143.386,263.37,175.337,263.37,216.537z
				 M225.113,216.537c0-26.906-16.816-40.359-44.563-40.359c-6.738-0.24-13.485,0.042-20.18,0.841v81.559h16.816
				C201.781,258.578,225.113,250.17,225.113,216.537z" opacity=".15"/></svg>